# xmcd
#
# Track frame offsets: 
#        150
#        36737
#        67950
#        97100
#        119462
#        149012
#        174687
#        196062
#        225187
#        254287
#        267725
#
# Disc length: 3899 seconds
#
# Revision: 0
# Processed by: cddbd v1.5.2PL0 Copyright (c) Steve Scherf et al.
# Submitted via: ExactAudioCopyFreeDBPlugin 1.0
#
DISCID=a70f390b
DTITLE=Various Artist - Audiophile Top-Hits zur High-End '98
DYEAR=1998
DGENRE=Blues
TTITLE0=Karl Ratzer - Main Squeeze
TTITLE1=Benny Waters - Blues Amore
TTITLE2=Ferenc Snétberger - FS Five
TTITLE3=Kevin Mahogany - Three Little Words
TTITLE4=Bryan Lee - Braille Blues Daddy
TTITLE5=Dan Wall - Black Ice
TTITLE6=Abdullah Ibrahim - The Call
TTITLE7=Willisohn and Butté - I Wish I Could Be Free
TTITLE8=Willisohn and Vanderlek - Heart Broken Man
TTITLE9=Rebecca Pidgeon - Johnnie Cope
TTITLE10=Telecats - Albatross
EXTD=
EXTT0=
EXTT1=
EXTT2=
EXTT3=
EXTT4=
EXTT5=
EXTT6=
EXTT7=
EXTT8=
EXTT9=
EXTT10=
PLAYORDER=
